<?xml version="1.0" encoding="utf-8"?>
<!-- Generator: Adobe Illustrator 17.0.0, SVG Export Plug-In . SVG Version: 6.00 Build 0)  -->
<!DOCTYPE svg PUBLIC "-//W3C//DTD SVG 1.1//EN" "http://www.w3.org/Graphics/SVG/1.1/DTD/svg11.dtd">
<svg version="1.1" id="Calque_1" xmlns="http://www.w3.org/2000/svg" xmlns:xlink="http://www.w3.org/1999/xlink" x="0px" y="0px"
	 width="413.424px" height="200px" viewBox="193.102 0 413.424 200" enable-background="new 193.102 0 413.424 200"
	 xml:space="preserve">
<path opacity="0.6" fill="#9B0000" enable-background="new    " d="M282.968,157.041c17.529-3.987,37.35-7.045,57.338-9.503
	c20-2.446,40.14-4.268,58.446-6.255c21.949-2.497,45.147-3.529,68.42-2.306l8.726,0.497c2.904,0.191,5.822,0.51,8.713,0.764
	c5.809,0.459,11.592,1.274,17.35,2.038c2.879,0.331,5.745,0.866,8.599,1.35c2.854,0.497,5.694,0.981,8.535,1.478
	c2.815,0.599,5.631,1.21,8.42,1.809c2.79,0.611,5.58,1.159,8.331,1.924c-0.293,1.159-4.344,1.962-0.866,3.49
	c14.064,5.452,13.223,8.038,12.561,10.268c-0.178,0.599-2.777-0.306-4.994-0.866c-2.217-0.573-3.987-1.045-2.369,0
	c-2.65-0.688-5.758-1.465-8.752-2.166c-3.006-0.662-5.949-1.121-8.204-1.465c-4.522-0.662-6.369-0.611-1.172,1.121
	c0.828,0.484,2.344,0.968,4.204,1.452s4.076,0.968,6.255,1.618c4.369,1.223,8.713,2.51,10.204,3.822
	c1.478,1.401,0.357,2-0.739,2.599c-1.108,0.637-2.217,1.274-0.739,2.586c3.376,1.07,10.166,3.121,13.516,4.255
	c2.904,2.331-4.459,2.204-1.159,3.401c9.49,4.561,22.573,9.185,34.892,15.58c-0.28,0.535,0.242,1.478,0,1.949
	c-0.127,0.229-0.433,0.344-1.134,0.217c-0.675-0.089-1.72-0.395-3.325-1.019l-5.07-2.433c-1.694-0.79-3.35-1.669-5.108-2.344
	c-3.478-1.427-6.955-2.866-10.433-4.293c-3.554-1.248-7.121-2.51-10.675-3.771c-3.58-1.21-7.248-2.191-10.866-3.312
	c-14.611-4.127-29.643-7.096-44.892-9.108c-15.248-2.025-30.713-3.096-46.267-3.35c-15.554-0.28-31.172,0.166-46.815,1.146
	c-31.287,1.949-62.586,6.153-93.822,11.108c-15.631,2.484-31.248,5.159-46.968,7.796c-15.732,2.599-31.49,5.223-47.86,6.994
	c-3.796,0.268-5.936,0.229-6.854-0.013c-0.866-0.255-0.599-0.688,0.535-1.261c2.268-1.146,7.771-2.777,13.108-4.433
	c-3.592,1.07-3.796-0.688-7.414,0.344c-0.178-1.783,6.764-5.58,20.981-8.433c-3.58,0.586-7.172,1.108-10.764,1.643
	c-3.682-0.064-0.255-1.783-0.42-2.968c3.58-0.535,7.159-1.057,7.057-1.656c-0.089-0.586-0.28-1.771-0.369-2.369
	c-3.554,0.548-10.688,1.592-14.242,2.025c3.554-0.459,7.121-0.955,7.032-1.554s-0.255-1.783-0.344-2.369
	c6.994-1.592,17.822-2.178,24.841-3.975l-0.306-1.771c-7.197,0.611-17.732,2.968-24.79,3.962c3.452-1.121,3.363-1.707,3.185-2.892
	c10.459-2.178,21.401-2.242,31.745-5.86l-10.637,1.834C254.153,160.225,272.331,159.461,282.968,157.041L282.968,157.041z"/>
<g transform="rotate(30.005 -248.627 4749.34) scale(.5333)">
	<g>
		<defs>
			<path id="SVGID_1_" d="M-3436.498,654.734c-3.745,0.408-6.815,2.076-6.815,2.076s-9.338,5.287-11.796,6.917
				c-2.458,1.631-1.503,4.981-1.503,4.981l5.86,12.14c2.93,3.885,4.497,4.497,9.682,5.643c5.185,1.147,8.586-1.376,8.586-1.376
				s9.274-5.363,11.707-7.478c2.433-2.115,0.331-7.911,0.331-7.911s-3.707-9.541-5.032-12.064s-3.72-3.274-5.21-3.414
				c-0.153-0.013-0.331-0.026-0.522-0.026C-3433.007,654.237-3436.498,654.734-3436.498,654.734L-3436.498,654.734z"/>
		</defs>
		<clipPath id="SVGID_2_">
			<use xlink:href="#SVGID_1_"  overflow="visible"/>
		</clipPath>
		<g clip-path="url(#SVGID_2_)">
			
				<linearGradient id="SVGID_3_" gradientUnits="userSpaceOnUse" x1="-28512.0449" y1="7639.9448" x2="-28511.0449" y2="7639.9448" gradientTransform="matrix(5.6911 -1.004 -1.004 -5.6911 166484.4375 15518.3809)">
				<stop  offset="0" style="stop-color:#FCD3C1"/>
				<stop  offset="0.28" style="stop-color:#D82022"/>
				<stop  offset="1" style="stop-color:#790000"/>
			</linearGradient>
			<path fill="url(#SVGID_3_)" d="M-3450.688,646.454l37.898,13.796l-11.987,32.917l-37.898-13.796L-3450.688,646.454z"/>
		</g>
	</g>
	
		<linearGradient id="SVGID_4_" gradientUnits="userSpaceOnUse" x1="-28934.4238" y1="7813.2695" x2="-28933.4238" y2="7813.2695" gradientTransform="matrix(-2.1435 -3.7119 -3.7119 2.1435 -36450.457 -123467.1953)">
		<stop  offset="0" style="stop-color:#D71920"/>
		<stop  offset="1" style="stop-color:#790000"/>
	</linearGradient>
	<path fill="url(#SVGID_4_)" d="M-3430.702,656.811l-11.057,6.917c-2.943,1.847-1.567,5.185-1.567,5.185s4.369,9.618,6.267,13.401
		c1.911,3.796,5.057,1.936,5.057,1.936s7.834-5.325,10.064-7.07c2.229-1.758,1.159-6.675,1.159-6.675s-3.592-9.172-5.286-12.166
		c-0.866-1.516-2.038-1.898-2.994-1.898C-3429.989,656.454-3430.702,656.811-3430.702,656.811L-3430.702,656.811z"/>
	
		<linearGradient id="SVGID_5_" gradientUnits="userSpaceOnUse" x1="-29051.9961" y1="7799.4268" x2="-29050.9961" y2="7799.4268" gradientTransform="matrix(-1.5626 -2.706 -2.706 1.5626 -27739.0215 -90118.3281)">
		<stop  offset="0" style="stop-color:#D71920"/>
		<stop  offset="1" style="stop-color:#790000"/>
	</linearGradient>
	<path fill="url(#SVGID_5_)" d="M-3451.848,666.187c-5.592-0.344-4.025,3.07-4.025,3.07s3.694,8.65,4.395,10.115
		c0.701,1.452,1.516,2.51,3.095,4.178c1.58,1.669,5.249,2.968,8.802,3.185c3.542,0.229,1.363-4.408,1.363-4.408
		s-2.395-5.223-5.439-11.121c-2.331-4.522-5.911-5.057-7.452-5.057C-3451.568,666.136-3451.848,666.187-3451.848,666.187
		L-3451.848,666.187z"/>
	<g opacity="0.3">
		<g>
			<defs>
				<polygon id="SVGID_6_" points="-3442.9,656.138 -3439.35,662.286 -3441.958,663.802 -3445.505,657.662 				"/>
			</defs>
			<clipPath id="SVGID_7_">
				<use xlink:href="#SVGID_6_"  overflow="visible"/>
			</clipPath>
			<g clip-path="url(#SVGID_7_)">
				<path fill="#FFFFFF" d="M-3438.472,660.531l7.019-4.076c0,0,3.338-1.911-0.535-1.86c-3.873,0.051-7.452,0.662-8.497,1.032
					c-1.045,0.382-3.108,1.338-4.14,1.924c-1.045,0.599-9.656,5.643-9.656,5.643s-2.586,2.089,1.707,1.949
					c4.293-0.14,7.286-0.306,11.732-3.07L-3438.472,660.531L-3438.472,660.531z"/>
			</g>
		</g>
	</g>
	
		<linearGradient id="SVGID_8_" gradientUnits="userSpaceOnUse" x1="-28278.5254" y1="4978.1958" x2="-28277.5254" y2="4978.1958" gradientTransform="matrix(0.4085 -0.2359 -0.2359 -0.4085 9279.4697 -3965.8374)">
		<stop  offset="0" style="stop-color:#918F90"/>
		<stop  offset="1" style="stop-color:#FFFFFF"/>
	</linearGradient>
	<path fill="url(#SVGID_8_)" d="M-3447.619,669.575c-0.522,0.318-0.395,1.49,0.28,2.624c0.675,1.134,1.656,1.796,2.178,1.478
		c0.522-0.318,0.395-1.49-0.28-2.624c-0.561-0.943-1.338-1.554-1.885-1.554C-3447.441,669.499-3447.542,669.524-3447.619,669.575z"
		/>
	
		<linearGradient id="SVGID_9_" gradientUnits="userSpaceOnUse" x1="-28278.2422" y1="4978.0752" x2="-28277.2422" y2="4978.0752" gradientTransform="matrix(0.4085 -0.2359 -0.2359 -0.4085 9278.6436 -3957.4885)">
		<stop  offset="0" style="stop-color:#918F90"/>
		<stop  offset="1" style="stop-color:#FFFFFF"/>
	</linearGradient>
	<path fill="url(#SVGID_9_)" d="M-3448.969,677.906c-0.522,0.318-0.395,1.49,0.28,2.624s1.656,1.796,2.178,1.478
		s0.395-1.49-0.28-2.624c-0.56-0.943-1.337-1.554-1.885-1.554C-3448.778,677.83-3448.88,677.855-3448.969,677.906z"/>
	
		<linearGradient id="SVGID_10_" gradientUnits="userSpaceOnUse" x1="-28355.457" y1="5630.2676" x2="-28354.457" y2="5630.2676" gradientTransform="matrix(0.5285 -0.3052 -0.3052 -0.5285 13264.9082 -5009.7271)">
		<stop  offset="0" style="stop-color:#918F90"/>
		<stop  offset="1" style="stop-color:#FFFFFF"/>
	</linearGradient>
	<path fill="url(#SVGID_10_)" d="M-3439.3,668.327c0,1.363,0.905,2.471,2.013,2.471s2.013-1.108,2.013-2.471
		c0-1.363-0.904-2.471-2.013-2.471S-3439.3,666.951-3439.3,668.327z"/>
	
		<linearGradient id="SVGID_11_" gradientUnits="userSpaceOnUse" x1="-28355.4531" y1="5630.2798" x2="-28354.4531" y2="5630.2798" gradientTransform="matrix(0.5285 -0.3052 -0.3052 -0.5285 13272.7754 -5014.8662)">
		<stop  offset="0" style="stop-color:#918F90"/>
		<stop  offset="1" style="stop-color:#FFFFFF"/>
	</linearGradient>
	<path fill="url(#SVGID_11_)" d="M-3431.428,663.18c0,1.363,0.904,2.471,2.013,2.471c1.108,0,2.013-1.108,2.013-2.471
		c0-1.363-0.904-2.471-2.013-2.471C-3430.536,660.709-3431.428,661.817-3431.428,663.18z"/>
	
		<linearGradient id="SVGID_12_" gradientUnits="userSpaceOnUse" x1="-28355.4531" y1="5630.2798" x2="-28354.4531" y2="5630.2798" gradientTransform="matrix(0.5285 -0.3052 -0.3052 -0.5285 13267.0645 -5004.9932)">
		<stop  offset="0" style="stop-color:#918F90"/>
		<stop  offset="1" style="stop-color:#FFFFFF"/>
	</linearGradient>
	<path fill="url(#SVGID_12_)" d="M-3437.147,673.053c0,1.363,0.904,2.471,2.013,2.471c1.109,0,2.013-1.108,2.013-2.471
		c0-1.363-0.904-2.471-2.013-2.471C-3436.243,670.581-3437.147,671.69-3437.147,673.053z"/>
	
		<linearGradient id="SVGID_13_" gradientUnits="userSpaceOnUse" x1="-28355.4531" y1="5630.2725" x2="-28354.4531" y2="5630.2725" gradientTransform="matrix(0.5285 -0.3052 -0.3052 -0.5285 13274.7871 -5010.1948)">
		<stop  offset="0" style="stop-color:#918F90"/>
		<stop  offset="1" style="stop-color:#FFFFFF"/>
	</linearGradient>
	<path fill="url(#SVGID_13_)" d="M-3429.414,667.855c0,1.363,0.904,2.471,2.013,2.471s2.013-1.108,2.013-2.471
		c0-1.363-0.905-2.471-2.013-2.471C-3428.522,665.384-3429.414,666.492-3429.414,667.855z"/>
	
		<linearGradient id="SVGID_14_" gradientUnits="userSpaceOnUse" x1="-28355.4512" y1="5630.2769" x2="-28354.4512" y2="5630.2769" gradientTransform="matrix(0.5285 -0.3052 -0.3052 -0.5285 13276.9521 -5005.479)">
		<stop  offset="0" style="stop-color:#918F90"/>
		<stop  offset="1" style="stop-color:#FFFFFF"/>
	</linearGradient>
	<path fill="url(#SVGID_14_)" d="M-3427.249,672.569c0,1.363,0.904,2.471,2.013,2.471s2.013-1.108,2.013-2.471
		c0-1.363-0.905-2.471-2.013-2.471C-3426.357,670.097-3427.249,671.206-3427.249,672.569z"/>
	
		<linearGradient id="SVGID_15_" gradientUnits="userSpaceOnUse" x1="-28355.4551" y1="5630.2671" x2="-28354.4551" y2="5630.2671" gradientTransform="matrix(0.5285 -0.3052 -0.3052 -0.5285 13269.2256 -5000.2241)">
		<stop  offset="0" style="stop-color:#918F90"/>
		<stop  offset="1" style="stop-color:#FFFFFF"/>
	</linearGradient>
	<path fill="url(#SVGID_15_)" d="M-3434.982,677.83c0,1.363,0.904,2.471,2.013,2.471c1.108,0,2.013-1.108,2.013-2.471
		c0-1.363-0.904-2.471-2.013-2.471C-3434.078,675.358-3434.982,676.454-3434.982,677.83z"/>
	
		<linearGradient id="SVGID_16_" gradientUnits="userSpaceOnUse" x1="-28384.0527" y1="5871.1665" x2="-28383.0527" y2="5871.1665" gradientTransform="matrix(0.5928 -0.3423 -0.3423 -0.5928 15400.2793 -5579.147)">
		<stop  offset="0" style="stop-color:#918F90"/>
		<stop  offset="1" style="stop-color:#FFFFFF"/>
	</linearGradient>
	<path fill="url(#SVGID_16_)" d="M-3436.472,656.925c-1.236,0.599-2.153,1.287-2.026,1.541c0.127,0.255,1.223-0.026,2.471-0.624
		c1.236-0.599,2.153-1.287,2.026-1.541c-0.026-0.064-0.127-0.089-0.268-0.089C-3434.689,656.199-3435.542,656.48-3436.472,656.925z"
		/>
	
		<linearGradient id="SVGID_17_" gradientUnits="userSpaceOnUse" x1="-28384.0508" y1="5871.1641" x2="-28383.0508" y2="5871.1641" gradientTransform="matrix(0.5928 -0.3423 -0.3423 -0.5928 15392.5352 -5574.332)">
		<stop  offset="0" style="stop-color:#918F90"/>
		<stop  offset="1" style="stop-color:#FFFFFF"/>
	</linearGradient>
	<path fill="url(#SVGID_17_)" d="M-3444.205,661.741c-1.236,0.599-2.153,1.287-2.026,1.541c0.127,0.255,1.223-0.026,2.471-0.624
		c1.236-0.599,2.153-1.287,2.026-1.541c-0.025-0.064-0.127-0.089-0.267-0.089C-3442.422,661.015-3443.275,661.282-3444.205,661.741z
		"/>
	
		<linearGradient id="SVGID_18_" gradientUnits="userSpaceOnUse" x1="-28384.0508" y1="5871.167" x2="-28383.0508" y2="5871.167" gradientTransform="matrix(0.5928 -0.3423 -0.3423 -0.5928 15386.8584 -5574.1011)">
		<stop  offset="0" style="stop-color:#918F90"/>
		<stop  offset="1" style="stop-color:#FFFFFF"/>
	</linearGradient>
	<path fill="url(#SVGID_18_)" d="M-3449.886,661.97c-1.236,0.599-2.153,1.287-2.026,1.541c0.127,0.255,1.223-0.026,2.471-0.624
		c1.236-0.599,2.153-1.287,2.026-1.541c-0.026-0.064-0.127-0.089-0.268-0.089C-3448.103,661.244-3448.957,661.524-3449.886,661.97z"
		/>
	
		<linearGradient id="SVGID_19_" gradientUnits="userSpaceOnUse" x1="-28383.9805" y1="5871.2051" x2="-28382.9805" y2="5871.2051" gradientTransform="matrix(0.5928 -0.3423 -0.3423 -0.5928 15394.2471 -5578.7163)">
		<stop  offset="0" style="stop-color:#918F90"/>
		<stop  offset="1" style="stop-color:#FFFFFF"/>
	</linearGradient>
	<path fill="url(#SVGID_19_)" d="M-3442.307,657.308c-1.236,0.599-2.153,1.287-2.025,1.541c0.127,0.255,1.223-0.025,2.471-0.624
		c1.236-0.599,2.153-1.287,2.026-1.541c-0.026-0.064-0.128-0.089-0.268-0.089C-3440.523,656.594-3441.377,656.862-3442.307,657.308z
		"/>
</g>
<path fill="#C31B0A" stroke="#000000" stroke-width="2" stroke-miterlimit="10" d="M212.07,93.29
	c-3.307-35.47,7.176-55.554,31.447-60.265c0.419-0.081,0.843-0.134,1.273-0.159c23.235-3.967,37.676,8.153,43.321,36.346
	c0.481,2.401,0.9,4.946,1.239,7.61l-21.063,6.275l-0.563-2.811c-3.767-18.814-10.054-27.367-18.861-25.657
	c-0.664,0.129-1.331,0.317-2.031,0.57c-10.353,3.653-15.393,16.238-15.137,37.744c0.119,8.385,0.816,15.763,2.094,22.147
	c1.994,9.958,5.448,17.549,10.344,22.747c7.415,7.82,14.861,10.997,22.355,9.542l1.704-0.331
	c8.12-2.369,11.914-11.513,11.413-27.425l-22.669,4.767l-3.627-18.563l41.557-8.345l0.158,0.791
	c6.524,32.586,3.355,54.067-9.512,64.415c-4.811,3.913-9.865,6.39-15.135,7.413c-8.981,1.743-18.573-0.621-28.782-7.106
	c-12.838-8.161-21.663-24.292-26.487-48.389C213.825,108.122,212.806,101.013,212.07,93.29L212.07,93.29z"/>
<path fill="#C31B0A" stroke="#000000" stroke-width="2" stroke-miterlimit="10" d="M293.092,47.569l19.601-6.558l31.926,84.492
	l11.302-91.866l23.616,0.615l-22.695,116.801l-22.028,3.215L293.092,47.569z"/>
<path fill="#4577AB" stroke="#000000" stroke-width="2" stroke-miterlimit="10" d="M452.073,105.75
	c3.677-12.511,10.578-20.106,20.705-22.785c3.798-0.97,7.336-1.181,10.578-0.609c5.462,0.934,10.174,4.048,14.106,9.337
	c5.237,6.954,6.886,15.676,4.934,26.149c-0.47,2.362-1.103,4.797-1.868,7.297c-4.362,13.781-12.223,21.792-23.567,24.023
	c-3.802,0.749-7.217,0.865-10.257,0.329c-6.071-1.114-10.576-4.777-13.514-10.989c-3.654-7.67-4.555-16.392-2.727-26.199
	C450.854,110.204,451.396,108.017,452.073,105.75L452.073,105.75z M461.964,114.842c-1.065,7.482-0.102,13.141,2.894,16.963
	c1.632,2.073,3.668,3.34,6.129,3.774c2.063,0.32,4.435,0.108,7.12-0.662c5.857-1.749,9.9-6.276,12.16-13.592
	c0.361-1.137,0.636-2.288,0.804-3.43c1.106-5.938,0.045-11.234-3.204-15.861c-2.035-2.876-4.385-4.549-7.019-5.014
	c-2.417-0.426-5.109,0.139-8.048,1.714c-5.84,3.098-9.379,8.051-10.6,14.847C462.094,113.986,462.015,114.411,461.964,114.842z"/>
<path fill="#C31B0A" stroke="#000000" stroke-width="2" stroke-miterlimit="10" d="M387.384,55.391l1.103-23.381l62.608-1.575
	l0.297,25.742l-42.278,70.85l44.471-1.863l-1.681,24.175c-17.15-0.354-38.676-0.466-64.564-0.337l0.004-22.957l40.747-72.049
	C417.46,54.254,403.882,54.723,387.384,55.391z"/>
<path fill="#061AA0" stroke="#000000" stroke-width="1.152" stroke-miterlimit="10" d="M329.353,147.153
	c-3.516,0.482-14.293-1.822,2.015-9.535c1.011-11.376,9.469-7.006,9.855-1.503c7.18,1.29,17.571,4.732,5.325,9.055
	c0,0,9.274,10.589,6.451,11.74c-8.803,2.06-8.401,2.127-9.931,0.968c-1.321-1.575-2.786-5.447-3.873-5.108
	c-1.982,1.936-2.097,6.471-4.146,6.752c-2.051,0.278-9.55,2.647-9.597-0.637c-0.051-3.282,2.204-7.85,3.898-11.732L329.353,147.153z
	"/>
<path fill="#86B238" stroke="#000000" stroke-width="2" stroke-miterlimit="10" d="M286.11,85.716
	c12.079-2.443,23.932-4.808,35.586-7.113l2.332,16.777c-7.745,0.654-15.677,1.541-23.791,2.688l3.817,22.012l20.941-3.007
	l0.887,12.643l-18.522,2.853l2.442,15.405l21.73-3.668l2.178,13.741c-11.274,1.416-22.841,3.139-34.714,5.187
	C295.968,139.264,291.666,113.435,286.11,85.716z"/>
<path fill="#86B238" stroke="#000000" stroke-width="2" stroke-miterlimit="10" d="M355.403,73.382
	c12.272-1.179,24.311-2.303,36.146-3.388l0.501,16.929c-7.771-0.152-15.752-0.092-23.942,0.209l1.41,22.291l21.143-0.821
	l-0.488,12.667l-18.722,0.919l0.759,15.576l21.998-1.396l0.677,13.893c-6.798,0.161-13.739,0.4-20.822,0.748
	c-4.703,0.231-9.448,0.492-14.25,0.8c-0.166-9.464-0.495-19.236-0.987-29.332C358.079,106.841,356.928,90.477,355.403,73.382
	L355.403,73.382z"/>
<path fill="#4577AB" stroke="#000000" stroke-width="2" stroke-miterlimit="10" d="M508.91,89.353l12.469,2.759
	c-3.155,9.753-5.668,18.121-7.518,25.079c-3.492,13.135-4.629,21.3-3.441,24.486c0.973,2.626,2.613,4.23,4.919,4.812
	c2.022,0.51,4.587,0.235,7.684-0.844c4.469-1.551,8.861-10.412,13.164-26.601c1.998-7.516,3.976-16.614,5.941-27.263l12.297,2.552
	c-8.018,30.161-13.901,48.63-17.669,55.431c-3.768,6.801-9.964,10.446-18.59,10.948c-2.231,0.107-4.296-0.072-6.175-0.546
	c-5.396-1.361-9.376-5.193-11.915-11.473c-2.884-7.155-1.234-22.333,4.931-45.521C506.165,98.823,507.463,94.226,508.91,89.353
	L508.91,89.353z"/>
<path fill="#C31B0A" stroke="#000000" stroke-width="2" stroke-miterlimit="10" d="M553.345,87.943
	c12.202,1.684,24.165,3.367,35.921,5.041l-3.59,16.577c-7.51-1.94-15.276-3.722-23.303-5.318l-3.997,22l20.731,4.077l-3.523,12.205
	l-18.404-3.424l-3.013,15.321l21.701,3.715l-2.688,13.665c-11.091-2.386-22.564-4.58-34.437-6.569
	C544.148,141.633,549.004,115.877,553.345,87.943L553.345,87.943z M564.346,75.326c4.654-2.727,9.905-5.592,15.769-8.607l3.533,8.84
	c-4.475,1.66-9.641,3.793-15.514,6.396L564.346,75.326L564.346,75.326z"/>
<g transform="rotate(30.005 -271.834 4739.057) scale(.5333)">
	<g>
		<defs>
			<path id="SVGID_20_" d="M-3420.839,649.733c0,0-5.249,12.14-7.223,17.185c-1.975,5.045,0.611,9.541,0.611,9.541
				s2.051,2.93,4.905,6.14c2.866,3.21,7.847,4.777,7.847,4.777l16.433,4.166c6.344,1.631,8.382-4.166,8.382-4.166
				s4.777-11.656,6-16.026c1.223-4.369,1.223-8.459-2.051-14.726c-3.274-6.268-9.414-7.643-9.414-7.643l-17.388-3.414
				c-0.344-0.051-0.688-0.064-1.019-0.064C-3418.393,645.504-3420.839,649.733-3420.839,649.733z"/>
		</defs>
		<clipPath id="SVGID_21_">
			<use xlink:href="#SVGID_20_"  overflow="visible"/>
		</clipPath>
		<g clip-path="url(#SVGID_21_)">
			
				<linearGradient id="SVGID_22_" gradientUnits="userSpaceOnUse" x1="-28466.5723" y1="7599.5269" x2="-28465.5723" y2="7599.5269" gradientTransform="matrix(6.5773 -0.6919 -0.6919 -6.5773 189069.4375 30949.3164)">
				<stop  offset="0" style="stop-color:#368CE7"/>
				<stop  offset="0.12" style="stop-color:#2874C6"/>
				<stop  offset="0.15" style="stop-color:#396CA1"/>
				<stop  offset="1" style="stop-color:#033C76"/>
			</linearGradient>
			<path fill="url(#SVGID_22_)" d="M-3415.834,638.485l40.268,17.924l-18.217,40.917l-40.268-17.924L-3415.834,638.485z"/>
		</g>
	</g>
	<g opacity="0.3">
		<g>
			<defs>
				<rect id="SVGID_23_" x="-3412.037" y="659.379" width="4.684" height="5.357"/>
			</defs>
			<clipPath id="SVGID_24_">
				<use xlink:href="#SVGID_23_"  overflow="visible"/>
			</clipPath>
			<g clip-path="url(#SVGID_24_)">
				<path fill="#FFFFFF" d="M-3412.317,646.6l16.497,3.274c0,0,5.045,1.096,3.21,6.408c-1.847,5.325-6.484,16.917-6.484,16.917
					s-2.255,5.325-7.771,4.025l-17.732-4.166c0,0-4.229-1.567-2.522-5.936c0.408-1.045,1.019-2.522,1.707-4.178
					c2.191-5.248,5.185-12.191,5.185-12.191S-3418.177,645.988-3412.317,646.6"/>
			</g>
		</g>
	</g>
	<path fill="#FFFFFF" d="M-3412.584,656.345c-1.669,0.892-3.605,0.535-4.318-0.803c-0.713-1.338,0.051-3.146,1.72-4.038
		c1.669-0.892,3.605-0.535,4.318,0.803C-3410.138,653.644-3410.916,655.453-3412.584,656.345 M-3408.559,663.81
		c-1.669,0.892-3.605,0.535-4.318-0.803c-0.713-1.338,0.051-3.146,1.72-4.038c1.669-0.892,3.605-0.535,4.318,0.803
		C-3406.126,661.109-3406.89,662.918-3408.559,663.81 M-3417.451,668.574c-1.669,0.892-3.605,0.535-4.318-0.803
		c-0.713-1.338,0.051-3.146,1.72-4.038s3.605-0.535,4.318,0.803C-3415.005,665.873-3415.782,667.682-3417.451,668.574
		 M-3399.527,659.109c-1.771,0.943-3.809,0.573-4.573-0.841c-0.764-1.414,0.064-3.325,1.822-4.268
		c1.771-0.943,3.809-0.573,4.573,0.841C-3396.941,656.256-3397.757,658.166-3399.527,659.109 M-3404.597,671.619
		c-1.771,0.943-3.809,0.573-4.573-0.841c-0.764-1.414,0.064-3.325,1.822-4.267c1.771-0.943,3.809-0.573,4.573,0.841
		S-3402.827,670.676-3404.597,671.619"/>
	<g>
		<defs>
			<path id="SVGID_25_" d="M-3391.247,656.549l-3.223,8.611c0,0-2.051,4.854-3.58,9.108c-1.529,4.242,0.866,10.076,3.58,13.197
				s4.14-0.204,4.14-0.204l4.803-13.045c0,0,1.274-3.019,1.898-6.548c0.612-3.529-0.841-7.86-3.427-11.554
				c-0.802-1.146-1.503-1.541-2.102-1.541C-3390.47,654.574-3391.247,656.549-3391.247,656.549L-3391.247,656.549z"/>
		</defs>
		<clipPath id="SVGID_26_">
			<use xlink:href="#SVGID_25_"  overflow="visible"/>
		</clipPath>
		<g clip-path="url(#SVGID_26_)">
			
				<linearGradient id="SVGID_27_" gradientUnits="userSpaceOnUse" x1="-28642.2637" y1="8370.9629" x2="-28641.2637" y2="8370.9629" gradientTransform="matrix(-1.9758 1.141 1.141 1.9758 -69528.125 16812.8027)">
				<stop  offset="0" style="stop-color:#4577AB"/>
				<stop  offset="1" style="stop-color:#003974"/>
			</linearGradient>
			<path fill="url(#SVGID_27_)" d="M-3383.005,690.574h-16.573v-36.013h16.573V690.574z"/>
		</g>
	</g>
	
		<linearGradient id="SVGID_28_" gradientUnits="userSpaceOnUse" x1="-28635.9434" y1="7317.2817" x2="-28634.9434" y2="7317.2817" gradientTransform="matrix(4.0509 -1.2721 -2.3392 -2.203 129693.9688 -19626.043)">
		<stop  offset="0" style="stop-color:#4577AB"/>
		<stop  offset="1" style="stop-color:#003974"/>
	</linearGradient>
	<path fill="url(#SVGID_28_)" d="M-3426.369,676.6c0,0,1.363,2.051,4.331,5.452c2.968,3.414,7.465,4.904,7.465,4.904
		s15.274,3.949,17.146,4.293c1.873,0.344,2.625-1.567-0.369-6.14c-3.007-4.573-9.21-6.408-9.21-6.408l-8.458-2.115
		c0,0-5.044-1.363-8.662-1.974c-0.382-0.064-0.713-0.089-0.994-0.089C-3427.452,674.523-3426.369,676.6-3426.369,676.6z"/>
	<g>
		<defs>
			<path id="SVGID_29_" d="M-3391.922,671.899c-0.369,1.758-0.166,3.287,0.471,3.427c0.637,0.14,1.452-1.172,1.834-2.93
				c0.382-1.758,0.165-3.287-0.472-3.427c-0.025-0.013-0.064-0.013-0.089-0.013C-3390.801,668.956-3391.566,670.23-3391.922,671.899
				L-3391.922,671.899z"/>
		</defs>
		<clipPath id="SVGID_30_">
			<use xlink:href="#SVGID_29_"  overflow="visible"/>
		</clipPath>
		<g clip-path="url(#SVGID_30_)">
			
				<linearGradient id="SVGID_31_" gradientUnits="userSpaceOnUse" x1="-29728.957" y1="6913.1304" x2="-29727.957" y2="6913.1304" gradientTransform="matrix(-8.166836e-05 -0.9449 -0.9449 8.166836e-05 3137.1284 -27415.2852)">
				<stop  offset="0" style="stop-color:#918F90"/>
				<stop  offset="1" style="stop-color:#FFFFFF"/>
			</linearGradient>
			<path fill="url(#SVGID_31_)" d="M-3393.847,674.179l3.287-5.707l2.866,1.656l-3.287,5.707L-3393.847,674.179z"/>
		</g>
	</g>
	<g>
		<defs>
			<path id="SVGID_32_" d="M-3409.4,680.281c-0.204,0.484,0.956,1.414,2.586,2.089s3.108,0.828,3.312,0.357
				c0.204-0.484-0.968-1.414-2.586-2.089c-0.994-0.408-1.936-0.637-2.561-0.637C-3409.056,680.001-3409.323,680.09-3409.4,680.281z"
				/>
		</defs>
		<clipPath id="SVGID_33_">
			<use xlink:href="#SVGID_32_"  overflow="visible"/>
		</clipPath>
		<g clip-path="url(#SVGID_33_)">
			
				<linearGradient id="SVGID_34_" gradientUnits="userSpaceOnUse" x1="-31617.2148" y1="5154.4248" x2="-31616.2148" y2="5154.4248" gradientTransform="matrix(0.0236 -0.3384 -0.3384 -0.0236 -917.1505 -9894.3389)">
				<stop  offset="0" style="stop-color:#918F90"/>
				<stop  offset="1" style="stop-color:#FFFFFF"/>
			</linearGradient>
			<path fill="url(#SVGID_34_)" d="M-3409.796,680.778l1.427-2.102l5.312,3.58l-1.427,2.102L-3409.796,680.778z"/>
		</g>
	</g>
	<g>
		<defs>
			<path id="SVGID_35_" d="M-3413.758,681.695c-0.204,0.484,0.956,1.414,2.586,2.089c1.631,0.675,3.108,0.828,3.312,0.357
				c0.204-0.484-0.968-1.414-2.586-2.089c-0.994-0.408-1.936-0.637-2.561-0.637
				C-3413.401,681.415-3413.681,681.504-3413.758,681.695z"/>
		</defs>
		<clipPath id="SVGID_36_">
			<use xlink:href="#SVGID_35_"  overflow="visible"/>
		</clipPath>
		<g clip-path="url(#SVGID_36_)">
			
				<linearGradient id="SVGID_37_" gradientUnits="userSpaceOnUse" x1="-32528.9238" y1="5231.313" x2="-32527.9238" y2="5231.313" gradientTransform="matrix(-0.0203 -0.2894 -0.2894 0.0203 -2556.2629 -8835.0537)">
				<stop  offset="0" style="stop-color:#918F90"/>
				<stop  offset="1" style="stop-color:#FFFFFF"/>
			</linearGradient>
			<path fill="url(#SVGID_37_)" d="M-3414.139,682.447l0.917-1.873l5.771,2.815l-0.917,1.873L-3414.139,682.447z"/>
		</g>
	</g>
	<g>
		<defs>
			<path id="SVGID_38_" d="M-3417.745,683.186c-0.204,0.484,0.968,1.414,2.586,2.089c1.631,0.675,3.108,0.828,3.312,0.357
				c0.204-0.484-0.968-1.414-2.586-2.089c-0.994-0.408-1.936-0.637-2.561-0.637
				C-3417.401,682.918-3417.668,683.007-3417.745,683.186z"/>
		</defs>
		<clipPath id="SVGID_39_">
			<use xlink:href="#SVGID_38_"  overflow="visible"/>
		</clipPath>
		<g clip-path="url(#SVGID_39_)">
			
				<linearGradient id="SVGID_40_" gradientUnits="userSpaceOnUse" x1="-32110.7129" y1="5132.2891" x2="-32109.7129" y2="5132.2891" gradientTransform="matrix(-1.054296e-05 -0.3091 -0.3091 1.054296e-05 -1828.6202 -9241.4717)">
				<stop  offset="0" style="stop-color:#918F90"/>
				<stop  offset="1" style="stop-color:#FFFFFF"/>
			</linearGradient>
			<path fill="url(#SVGID_40_)" d="M-3418.14,683.823l1.159-2.013l5.567,3.21l-1.159,2.013L-3418.14,683.823z"/>
		</g>
	</g>
	<path fill="#35699E" d="M-3411.465,651.593c0,0-1.822-1.096-4.191,0.229c-2.382,1.338-1.58,4.548,0.522,4.955
		c0,0-2.37,0.127-2.446-2.497C-3417.669,651.644-3413.542,649.746-3411.465,651.593"/>
	<path fill="#D1D3D4" d="M-3415.069,656.752c0,0-1.885-1.49-1.146-3.248c0.866-2.064,3.924-2.217,3.924-2.217
		s-2.191-0.841-4.076,1.108C-3418.253,654.332-3416.864,656.842-3415.069,656.752"/>
	<path fill="#35699E" d="M-3398.279,654.103c0,0-1.847-1.172-4.242,0.255c-2.395,1.414-1.592,4.815,0.522,5.248
		c0,0-2.395,0.14-2.471-2.65C-3404.547,654.166-3400.381,652.141-3398.279,654.103"/>
	<path fill="#D1D3D4" d="M-3401.924,659.58c0,0-1.911-1.58-1.159-3.452c0.879-2.178,3.962-2.357,3.962-2.357
		s-2.217-0.892-4.115,1.172C-3405.133,657.02-3403.732,659.67-3401.924,659.58"/>
	<path fill="#35699E" d="M-3407.044,659.402c0,0-1.733-1.287-4.242-0.178c-2.522,1.108-2.026,4.395,0.038,5.019
		c0,0-2.395-0.102-2.217-2.752C-3413.287,658.842-3408.955,657.339-3407.044,659.402"/>
	<path fill="#D1D3D4" d="M-3411.172,664.217c0,0-1.745-1.682-0.828-3.376c1.07-1.975,4.153-1.847,4.153-1.847
		s-2.127-1.057-4.204,0.713C-3414.127,661.479-3412.981,664.128-3411.172,664.217"/>
	<path fill="#35699E" d="M-3415.873,664.167c0,0-1.732-1.287-4.242-0.178c-2.522,1.108-2.026,4.395,0.038,5.019
		c0,0-2.395-0.102-2.217-2.752C-3422.115,663.606-3417.783,662.103-3415.873,664.167"/>
	<path fill="#D1D3D4" d="M-3420,668.995c0,0-1.745-1.682-0.828-3.376c1.07-1.974,4.153-1.847,4.153-1.847s-2.127-1.057-4.204,0.713
		C-3422.955,666.243-3421.822,668.905-3420,668.995"/>
	<path fill="#35699E" d="M-3403.159,666.829c0,0-1.72-1.376-4.242-0.153c-2.535,1.223-2.064,4.777,0,5.414
		c0,0-2.395-0.089-2.204-2.955C-3409.401,666.268-3405.044,664.612-3403.159,666.829"/>
	<path fill="#D1D3D4" d="M-3407.325,672.065c0,0-1.745-1.796-0.802-3.643c1.083-2.153,4.178-2.026,4.178-2.026
		s-2.127-1.121-4.217,0.803C-3410.267,669.135-3409.146,671.988-3407.325,672.065"/>
</g>
<path fill="#FFFFFF" d="M256.758,25.562c-5.242-7.676-14.131-10.698-19.854-6.746c-5.739,3.926-6.127,13.325-0.885,21.004
	s14.132,10.697,19.855,6.746c5.732-3.949,6.115-13.35,0.892-21.004"/>
<path d="M256.808,25.529c0,0,0.206,0.293,0.563,0.854s0.841,1.405,1.391,2.504c0.276,0.55,0.535,1.18,0.815,1.896
	c0.268,0.692,0.515,1.465,0.745,2.318c0.231,0.854,0.387,1.754,0.476,2.773c0.074,1.006,0.115,2.051-0.033,3.21
	c-0.127,1.108-0.395,2.318-0.917,3.452c-0.497,1.172-1.236,2.331-2.204,3.312l-0.369,0.369l-0.408,0.357
	c-0.127,0.127-0.255,0.217-0.395,0.318l-0.191,0.14l-0.242,0.178c-0.599,0.395-1.261,0.726-1.949,1.006
	c-1.363,0.522-2.854,0.752-4.318,0.701c-2.917-0.115-5.682-1.172-8.089-2.764c-1.172-0.79-2.28-1.732-3.274-2.726
	c-0.484-0.535-0.955-1.045-1.389-1.618s-0.841-1.159-1.248-1.732c-1.529-2.395-2.637-5.07-3.21-7.809
	c-0.561-2.752-0.586-5.669,0.293-8.395c0.446-1.35,1.121-2.637,2.089-3.732c0.255-0.268,0.471-0.522,0.739-0.777l0.42-0.357
	c0.14-0.127,0.255-0.204,0.408-0.318c0.599-0.408,1.172-0.79,1.822-1.07c1.248-0.573,2.611-0.841,3.847-0.904
	c1.274-0.076,2.459,0.102,3.541,0.395c1.108,0.268,2.089,0.675,2.994,1.121c0.904,0.446,1.694,0.943,2.42,1.452
	c0.726,0.51,1.35,1.019,1.924,1.529c0.548,0.535,1.032,1.006,1.452,1.452c0.828,0.917,1.427,1.669,1.834,2.191l0.535,0.777
	 M256.791,25.708c0,0-0.204-0.293-0.599-0.79c-0.395-0.522-1.006-1.287-1.86-2.14c-0.866-0.879-2.038-1.809-3.516-2.701
	c-1.478-0.892-3.274-1.682-5.338-2.102c-0.522-0.102-1.045-0.178-1.592-0.229c-0.28-0.038-0.561-0.013-0.841-0.051
	c-0.293,0-0.561-0.013-0.854,0.025c-1.134,0.064-2.318,0.318-3.478,0.815c-0.573,0.242-1.121,0.561-1.631,0.917
	c-0.115,0.089-0.268,0.191-0.42,0.293l-0.369,0.306c-0.255,0.217-0.459,0.433-0.701,0.662c-0.917,0.943-1.605,2.115-2.115,3.376
	c-0.994,2.561-1.083,5.427-0.535,8.153c0.293,1.35,0.752,2.688,1.299,3.949c0.586,1.248,1.299,2.471,2.115,3.59
	c1.656,2.242,3.682,4.178,5.987,5.631c2.306,1.452,4.955,2.403,7.592,2.446c1.338,0.013,2.624-0.191,3.809-0.65
	c0.624-0.225,1.185-0.522,1.694-0.841l0.178-0.127l0.191-0.14c0.127-0.089,0.293-0.213,0.382-0.306l0.357-0.28l0.344-0.306
	c0.879-0.854,1.541-1.86,2.013-2.904c0.115-0.255,0.217-0.527,0.344-0.777c0.076-0.259,0.178-0.535,0.255-0.79
	c0.178-0.531,0.293-1.05,0.395-1.592c0.382-2.089,0.28-4.051,0.013-5.752c-0.293-1.682-0.752-3.121-1.261-4.255
	c-0.459-1.129-0.968-1.955-1.299-2.535c-0.293-0.637-0.484-0.904-0.484-0.904"/>
<path d="M246.926,34.764c1.643,1.921,1.741,4.522,0.21,5.801c-1.531,1.279-4.106,0.752-5.749-1.169
	c-1.643-1.921-1.745-4.522-0.217-5.801c1.503-1.261,4.102-0.752,5.745,1.169"/>
<path fill="#FFFFFF" d="M243.482,35.255c0.647,0.764,0.713,1.799,0.079,2.312c-0.609,0.494-1.631,0.298-2.276-0.465
	c-0.646-0.763-0.711-1.799-0.076-2.311c0.591-0.51,1.628-0.293,2.274,0.471"/>
<path d="M239.373,53.554c0,0-8.608-4.875-22.885,7.009c0,0,0.708,2.58,5.767,2.136l-2.357-2.102c0,0,10.324-8.293,19.475-7.045"/>
<path d="M235.647,51.338c0,0-4.86-1.997-10.95,0.013C224.697,51.35,230.46,52.173,235.647,51.338 M235.405,55.394
	c0,0-7.231,1.121-10.694,9.233C224.696,64.604,233.432,55.359,235.405,55.394 M224.62,23.585l4.229-0.265
	c0,0,1.503-9.541,10.446-12.102C239.255,11.214,225.767,11.86,224.62,23.585 M226.022,34.535c0,0,7.631,4.95,8.999,11.562
	c0,0-12.382-8.372-30,6.461c0,0,9.911-15.439,24.624-12.82l-3.643-5.185l0.025-0.018H226.022z"/>
<path fill="#FFFFFF" d="M408.227,33.885c-0.841-7.865,3.146-14.673,8.924-15.215c5.777-0.543,11.121,5.397,11.962,13.236
	c0.841,7.866-3.146,14.675-8.924,15.217c-5.777,0.541-11.121-5.389-11.962-13.236"/>
<path d="M408.173,33.885c0,0,0.054,0.299,0.108,0.869c0.038,0.298,0.089,0.65,0.191,1.032c0.115,0.405,0.166,0.894,0.331,1.409
	c0.089,0.271,0.14,0.543,0.217,0.815c0.089,0.297,0.191,0.568,0.306,0.894c0.064,0.162,0.115,0.298,0.166,0.461
	c0.051,0.163,0.14,0.325,0.217,0.488c0.14,0.325,0.268,0.678,0.459,1.004c0.688,1.355,1.605,2.82,3.019,4.122
	c1.389,1.274,3.261,2.408,5.541,2.624l0.433,0.051h1.146l0.115-0.025c0.268-0.051,0.573-0.089,0.866-0.14
	c0.293-0.051,0.573-0.166,0.841-0.255c1.108-0.382,2.204-0.955,3.07-1.771c0.892-0.815,1.682-1.732,2.306-2.803
	c0.166-0.242,0.306-0.548,0.433-0.815l0.217-0.408c0.064-0.14,0.115-0.28,0.191-0.433c0.115-0.306,0.242-0.573,0.357-0.879
	c0.089-0.306,0.191-0.599,0.28-0.904c0.115-0.306,0.166-0.599,0.217-0.892c0.064-0.306,0.14-0.599,0.191-0.93
	c0.089-0.624,0.191-1.223,0.217-1.847c0-0.293,0.064-0.624,0.025-0.917l-0.025-0.955c0-0.331-0.025-0.624-0.051-0.93l-0.089-0.917
	c-0.191-1.248-0.433-2.446-0.841-3.605c-0.344-1.172-0.866-2.306-1.439-3.363c-0.561-1.083-1.299-2.038-2.051-2.955
	c-0.815-0.892-1.707-1.682-2.688-2.306c-1.006-0.624-2.115-1.032-3.261-1.248c-0.293-0.025-0.599-0.076-0.866-0.115h-1.146
	l-0.102,0.025l-0.408,0.051c-0.268,0.051-0.573,0.076-0.815,0.166c-0.268,0.076-0.51,0.166-0.79,0.242l-0.726,0.331l-0.701,0.369
	c-0.217,0.127-0.459,0.268-0.65,0.433c-0.408,0.318-0.815,0.624-1.134,1.006c-0.153,0.178-0.344,0.344-0.484,0.535
	c-0.127,0.191-0.293,0.382-0.433,0.573c-1.108,1.516-1.732,3.172-2.115,4.611c-0.051,0.191-0.102,0.344-0.14,0.535
	c-0.025,0.191-0.076,0.357-0.115,0.522s-0.076,0.357-0.102,0.522c-0.025,0.166-0.051,0.331-0.051,0.484
	c-0.025,0.331-0.076,0.624-0.102,0.93c-0.025,0.306-0.025,0.573-0.051,0.841c-0.051,0.535,0,1.032-0.025,1.439
	c0,0.408,0.038,0.752,0.064,1.057c-0.051,0.599-0.025,0.892-0.025,0.892 M408.383,33.808c0,0-0.025-0.306-0.051-0.866
	c-0.025-0.306-0.051-0.662-0.025-1.057c0-0.408,0-0.904,0.064-1.414c0.025-0.268,0.064-0.548,0.089-0.841l0.166-0.892l0.089-0.497
	c0.064-0.166,0.089-0.331,0.14-0.484c0.051-0.153,0.076-0.318,0.14-0.51c0.064-0.166,0.115-0.357,0.166-0.522
	c0.459-1.389,1.197-2.904,2.331-4.28c0.14-0.166,0.306-0.357,0.433-0.522s0.331-0.331,0.497-0.497
	c0.306-0.344,0.711-0.624,1.057-0.892c0.191-0.166,0.408-0.242,0.599-0.382c0.191-0.14,0.408-0.268,0.624-0.344
	c0.217-0.115,0.433-0.217,0.65-0.306c0.25-0.076,0.466-0.127,0.711-0.217s0.497-0.102,0.739-0.166l0.38-0.076l0.089-0.025h0.025
	c0.025,0-0.025,0,0,0h0.242c0.276-0.025,0.548-0.025,0.815-0.051c0.242,0.025,0.52,0.059,0.764,0.059
	c1.032,0.127,2.089,0.459,3.096,1.006c0.975,0.535,1.898,1.248,2.713,2.089l0.567,0.65l0.268,0.318l0.242,0.352
	c0.166,0.242,0.357,0.484,0.51,0.726l0.433,0.79c1.159,2.089,1.783,4.502,2,6.892l0.025,0.922c0.025,0.293,0.025,0.624,0,0.917
	l-0.025,0.901c0,0.293-0.051,0.599-0.076,0.892c-0.025,0.599-0.157,1.191-0.268,1.761c-0.051,0.293-0.127,0.561-0.217,0.866
	c-0.076,0.293-0.127,0.573-0.242,0.841c-0.076,0.268-0.191,0.535-0.268,0.841c-0.106,0.268-0.217,0.535-0.349,0.815l-0.166,0.408
	l-0.217,0.369c-0.14,0.242-0.268,0.513-0.433,0.757c-0.599,0.981-1.325,1.822-2.166,2.548c-1.656,1.414-3.745,2.115-5.745,1.898
	c-0.242-0.025-0.459-0.025-0.706-0.076l-0.701-0.153c0,0-0.459-0.166-0.675-0.255c-0.217-0.089-0.459-0.163-0.65-0.268
	c-0.217-0.102-0.408-0.217-0.624-0.318s-0.382-0.242-0.599-0.382c-0.408-0.242-0.726-0.51-1.083-0.79
	c-1.389-1.146-2.415-2.471-3.147-3.72c-0.191-0.293-0.357-0.65-0.517-0.955c-0.076-0.166-0.162-0.293-0.242-0.459
	c-0.051-0.166-0.14-0.302-0.191-0.459c-0.136-0.303-0.242-0.573-0.353-0.841c-0.089-0.276-0.191-0.548-0.268-0.815
	c-0.191-0.518-0.28-0.981-0.382-1.389c-0.102-0.408-0.166-0.758-0.191-1.032c0.025-0.599,0-0.892,0-0.892"/>
<path fill="#FFFFFF" d="M427.702,32.476c-0.922,9.057,3.417,16.897,9.628,17.521c6.238,0.624,12.015-6.211,12.938-15.27
	c0.922-9.057-3.418-16.892-9.656-17.541c-6.21-0.599-12.015,6.242-12.91,15.299"/>
<path d="M427.755,32.476c0,0,0.055-0.353,0.136-0.977c0.108-0.624,0.242-1.573,0.596-2.713c0.326-1.166,0.866-2.522,1.656-3.987
	c0.785-1.465,1.898-3.009,3.363-4.339c0.378-0.318,0.758-0.65,1.192-0.943c0.217-0.166,0.433-0.293,0.65-0.433
	c0.217-0.14,0.459-0.268,0.675-0.382c0.943-0.484,1.975-0.841,3.083-0.917l0.408-0.025h0.408c0.127,0,0.293,0.025,0.433,0.025
	l0.217,0.025l0.191,0.025c0.56,0.064,1.108,0.217,1.656,0.408c1.083,0.408,2.089,1.083,3.006,1.898
	c1.783,1.682,3.032,4.076,3.771,6.599c0.726,2.548,0.968,5.299,0.777,8c-0.115,1.363-0.331,2.713-0.675,4.025
	s-0.815,2.611-1.439,3.796c-1.197,2.395-2.955,4.51-5.134,5.809c-1.083,0.624-2.255,1.083-3.427,1.223
	c-0.306,0.064-0.599,0.064-0.866,0.064h-0.433c-0.14,0-0.306-0.025-0.459-0.025c-0.573-0.051-1.146-0.153-1.656-0.344
	c-1.057-0.318-2.013-0.892-2.854-1.567c-0.217-0.166-0.408-0.357-0.599-0.522c-0.191-0.191-0.382-0.357-0.548-0.573
	c-0.357-0.382-0.675-0.79-0.981-1.172c-1.197-1.618-1.949-3.363-2.446-4.93c-0.497-1.592-0.739-3.032-0.815-4.229
	c-0.115-1.197-0.089-2.14-0.025-2.79l0.076-0.968 M427.578,32.536c0,0-0.025,0.357-0.076,0.981c-0.064,0.65-0.089,1.605-0.025,2.803
	c0.025,0.599,0.076,1.274,0.166,2.013c0.089,0.739,0.217,1.516,0.408,2.331c0.191,0.841,0.459,1.707,0.815,2.611
	s0.777,1.822,1.376,2.713c0.599,0.892,1.299,1.771,2.191,2.497c0.892,0.764,1.949,1.363,3.172,1.745
	c0.599,0.191,1.223,0.28,1.873,0.331c0.153,0,0.293,0.025,0.459,0l0.484-0.025c0.318-0.025,0.65-0.051,0.968-0.14
	c1.274-0.217,2.522-0.777,3.605-1.516c2.191-1.49,3.873-3.707,5.121-6.127c1.223-2.446,2.025-5.121,2.382-7.924
	c0.089-0.675,0.14-1.376,0.166-2.089c0.025-0.701,0.025-1.401,0-2.076c-0.089-1.389-0.306-2.764-0.624-4.127
	c-0.701-2.688-1.987-5.236-3.911-7.134c-0.968-0.955-2.115-1.707-3.363-2.178c-0.624-0.242-1.274-0.408-1.898-0.459
	c-0.076,0-0.127-0.025-0.268-0.025h-0.217c-0.166,0-0.293-0.025-0.459-0.025h-0.432l-0.462,0.064
	c-1.248,0.14-2.446,0.548-3.473,1.121c-1.027,0.573-1.898,1.274-2.662,2.034c-0.764,0.761-1.35,1.567-1.898,2.382
	c-0.51,0.815-0.943,1.592-1.299,2.382c-0.344,0.79-0.624,1.516-0.866,2.229c-0.217,0.708-0.408,1.359-0.535,1.924
	c-0.28,1.172-0.433,2.115-0.522,2.772c-0.127,0.624-0.153,0.981-0.153,0.981"/>
<path d="M429.682,27.431c0,1.791,1.057,3.255,2.359,3.255s2.361-1.465,2.361-3.255s-1.057-3.255-2.361-3.255
	C430.738,24.176,429.682,25.641,429.682,27.431"/>
<path fill="#FFFFFF" d="M431.58,26.127c0,0.707,0.408,1.303,0.922,1.303c0.515,0,0.922-0.569,0.922-1.302
	c0-0.701-0.408-1.299-0.922-1.299c-0.515,0-0.922,0.599-0.922,1.299"/>
<path d="M419.944,39.609c0,1.52,0.896,2.739,1.98,2.739s1.981-1.219,1.981-2.739c0-1.52-0.896-2.739-1.981-2.739
	C420.838,36.87,419.944,38.09,419.944,39.609"/>
<path fill="#FFFFFF" d="M421.544,38.525c0,0.596,0.353,1.083,0.787,1.083s0.786-0.487,0.786-1.083s-0.352-1.085-0.786-1.085
	S421.544,37.927,421.544,38.525"/>
<path d="M429.41,6.736c0,0,2.767,7.758,8.217,7.92c5.452,0.135,8.599,0,8.599,0L429.41,6.736z M425.639,8.499
	c0,0-3.851-6.293-8.599-1.763c-4.772,4.557-5.694,6.183-5.694,6.183S421.164,6.059,425.639,8.499"/>
</svg>
